<?xml version="1.0" standalone="no"?>
<!DOCTYPE svg PUBLIC "-//W3C//DTD SVG 20010904//EN"
 "http://www.w3.org/TR/2001/REC-SVG-20010904/DTD/svg10.dtd">
<svg version="1.0" xmlns="http://www.w3.org/2000/svg"
 width="1133.000000pt" height="1133.000000pt" viewBox="0 0 1133.000000 1133.000000"
 preserveAspectRatio="xMidYMid meet">
<metadata>
Created by potrace 1.11, written by Peter Selinger 2001-2013
</metadata>
<g transform="translate(0.000000,1133.000000) scale(0.100000,-0.100000)"
fill="#000000" stroke="none">
<path d="M5257 10359 c-194 -11 -403 -33 -602 -65 -88 -14 -161 -27 -163 -29
-2 -2 25 -18 60 -37 180 -95 294 -294 328 -571 18 -156 23 -332 11 -448 -6
-63 -18 -202 -26 -309 -45 -575 -56 -673 -82 -743 -14 -37 -24 -69 -22 -71 5
-3 232 -137 244 -144 6 -3 -1 7 -14 21 -23 26 -24 28 -9 64 9 21 23 63 33 93
49 148 206 460 306 608 27 40 79 121 115 180 36 59 90 139 120 178 30 39 54
77 54 86 0 9 11 23 25 32 l25 17 -6 -43 c-5 -41 -5 -42 11 -23 10 11 19 16 21
10 4 -9 24 -40 127 -201 241 -376 345 -572 444 -828 l34 -90 -67 -67 c-37 -38
-71 -66 -76 -63 -4 3 -17 2 -29 -1 -14 -5 -19 -14 -17 -30 3 -27 -66 -87 -147
-126 -69 -32 -154 -86 -188 -118 -65 -60 -90 -153 -58 -215 12 -24 18 -49 15
-65 -7 -36 34 -86 78 -95 144 -31 117 -34 517 59 13 3 21 8 19 11 -3 2 -74 -9
-159 -25 l-154 -29 -85 18 c-47 9 -103 28 -124 41 l-40 23 30 13 c18 7 22 12
12 13 -10 0 -18 5 -18 10 0 20 55 -3 95 -40 30 -27 56 -39 100 -49 56 -11 69
-10 220 24 143 33 187 45 159 45 -6 0 -71 -13 -145 -29 -129 -29 -137 -29
-207 -16 -41 8 -90 25 -110 37 l-37 23 67 3 c36 2 104 -4 149 -11 79 -14 90
-14 213 9 151 28 139 27 130 13 -5 -9 1 -10 20 -5 14 3 26 2 26 -3 0 -5 -12
-12 -27 -14 l-28 -4 26 -2 c25 -1 27 -5 31 -64 3 -35 14 -83 25 -108 23 -52
103 -144 144 -164 34 -18 53 -19 23 -2 -48 27 -86 69 -109 119 -21 45 -25 68
-25 150 0 53 4 99 9 102 12 8 21 -29 21 -85 0 -62 53 -166 99 -196 46 -31 116
-31 162 0 44 30 62 83 55 162 -4 33 -9 157 -12 275 l-6 215 44 22 c124 62 161
78 248 110 224 81 349 113 505 129 83 8 195 21 249 29 127 19 130 19 121 -2
-4 -10 -36 -119 -71 -243 -160 -555 -260 -850 -288 -850 -6 0 -33 7 -60 15
-61 19 -100 19 -151 0 -24 -9 -79 -14 -142 -15 -94 0 -106 -2 -164 -33 -88
-45 -124 -103 -124 -196 1 -49 7 -78 24 -111 24 -45 158 -187 196 -208 11 -5
-18 29 -65 76 -129 130 -163 217 -124 310 34 83 111 133 214 138 l65 4 -40
-20 c-22 -11 -50 -20 -63 -20 -37 0 -99 -37 -129 -77 -23 -30 -28 -46 -28 -93
0 -46 6 -66 35 -114 47 -79 108 -145 175 -191 32 -22 51 -41 45 -45 -6 -4 12
-17 41 -30 82 -35 130 -50 124 -39 -4 6 3 7 22 3 15 -4 37 -7 48 -7 11 1 14
-1 8 -4 -7 -3 -13 -11 -13 -19 0 -8 -20 -55 -45 -104 -57 -113 -82 -202 -67
-233 6 -12 13 -50 15 -84 15 -186 191 -237 363 -106 48 36 164 194 244 333 40
69 73 126 74 127 4 5 140 -48 238 -91 186 -83 349 -178 451 -263 52 -43 143
-113 201 -154 58 -40 105 -76 106 -79 0 -3 -28 -20 -62 -37 -35 -18 -137 -73
-228 -124 -207 -115 -629 -329 -693 -351 l-47 -17 -26 52 c-27 53 -61 97 -75
97 -5 0 -28 14 -51 30 -46 32 -174 85 -247 102 -66 15 -137 -9 -189 -66 -52
-57 -63 -95 -67 -241 l-3 -120 7 105 c5 58 14 126 20 151 24 89 109 159 191
158 35 0 34 0 -25 -31 -81 -41 -113 -73 -131 -133 -24 -81 -35 -193 -25 -270
5 -40 5 -72 -1 -76 -4 -3 4 -40 19 -82 15 -43 30 -72 33 -66 5 7 9 5 13 -5 5
-12 -4 -18 -36 -26 -130 -34 -260 -95 -265 -126 -2 -10 -21 -37 -42 -59 -51
-54 -70 -95 -70 -151 0 -105 89 -182 220 -192 88 -6 246 13 360 43 50 14 118
25 150 25 57 0 58 0 73 -37 9 -21 34 -79 56 -130 50 -114 102 -262 147 -418
27 -94 38 -157 50 -290 8 -93 19 -197 24 -229 5 -33 8 -62 6 -64 -9 -8 -965
305 -1060 347 -60 28 -68 34 -62 54 27 98 39 187 29 209 -14 30 -52 143 -64
191 -40 164 -180 238 -318 167 -53 -26 -142 -101 -176 -146 -25 -34 -21 -32
31 17 142 133 233 165 331 118 40 -19 99 -86 88 -98 -3 -2 -18 7 -33 22 -43
42 -117 70 -162 62 -81 -14 -231 -130 -298 -231 -15 -22 -32 -39 -38 -37 -6 2
-23 -25 -39 -59 -41 -94 -40 -92 -24 -83 8 5 11 5 6 -1 -13 -14 -29 -12 -57 7
-81 54 -251 120 -258 99 -2 -5 -29 -10 -60 -10 -114 -1 -169 -26 -209 -96 -42
-73 -21 -170 54 -254 54 -60 184 -162 278 -217 39 -23 89 -61 113 -86 l44 -44
-43 -109 c-103 -267 -238 -515 -356 -656 -43 -51 -109 -135 -147 -186 l-69
-93 -129 238 c-209 384 -361 689 -407 817 l-43 119 42 38 c24 22 44 39 46 39
2 0 -1 -12 -7 -27 l-10 -28 25 30 c23 27 32 45 22 45 -2 0 -84 -16 -182 -35
-98 -19 -210 -37 -249 -39 -55 -3 -135 -24 -152 -40 -2 -2 17 -47 42 -102 l44
-99 26 -279 c14 -153 24 -280 22 -283 -2 -2 -14 35 -27 82 -13 47 -24 84 -26
82 -2 -2 7 -68 21 -148 63 -370 77 -472 81 -584 l4 -120 -20 130 c-30 203
-114 678 -117 668 -2 -6 5 -97 17 -202 19 -182 25 -300 16 -290 -3 3 -23 151
-45 329 -22 179 -47 375 -54 435 l-15 110 -1 -280 c0 -167 4 -296 10 -320 17
-63 26 -122 66 -400 54 -382 52 -571 -7 -711 l-18 -40 97 -27 c229 -63 575
-117 753 -117 54 0 89 -4 94 -11 10 -17 263 -5 411 20 147 25 422 94 460 116
33 19 28 18 -122 -24 -189 -53 -459 -102 -542 -100 -21 1 7 7 62 15 178 24
485 95 586 135 26 10 27 11 13 56 -21 71 -15 85 9 21 19 -52 38 -71 50 -50 3
4 -5 39 -18 77 -43 129 -55 239 -56 509 -1 138 -5 325 -8 416 -5 132 -1 216
18 420 13 140 27 257 31 260 5 3 18 27 29 53 11 26 24 47 29 47 11 0 113 -35
138 -47 81 -41 112 -53 133 -53 23 0 23 1 7 19 -10 11 -60 47 -112 82 -111 73
-128 102 -37 64 44 -19 42 -19 35 7 -4 17 -2 20 13 14 38 -14 -5 21 -47 39
-65 28 -69 33 -56 61 14 30 20 30 104 -2 44 -16 85 -42 119 -72 28 -26 131
-112 227 -192 97 -80 175 -146 173 -148 -2 -2 -35 15 -74 37 -91 51 -84 39 16
-29 75 -51 138 -97 357 -259 54 -40 131 -105 170 -143 l71 -70 -105 79 c-159
120 -580 416 -580 409 0 -2 78 -67 173 -144 170 -138 219 -182 201 -182 -9 0
-115 81 -467 358 -115 90 -211 162 -213 159 -9 -9 386 -385 423 -403 66 -33
563 -415 644 -495 66 -65 149 -173 161 -211 5 -15 124 49 258 137 426 281 733
588 986 988 58 90 63 102 47 110 -57 30 -104 59 -100 63 2 2 30 -7 61 -22 45
-21 60 -23 71 -14 12 10 -2 21 -83 61 -134 65 -245 149 -382 289 -63 64 -140
139 -170 165 -166 145 -302 283 -412 416 -121 147 -172 229 -163 260 3 9 -1
32 -10 52 -8 20 -15 41 -15 47 0 13 88 57 189 94 201 74 21 74 -206 1 -13 -4
-23 -3 -23 2 0 11 64 43 88 43 9 0 24 5 32 10 13 9 13 12 -3 24 -18 14 -18 15
0 25 17 10 16 10 -4 11 -12 0 -43 -7 -68 -15 -47 -17 -77 -10 -88 19 -5 13 30
31 227 115 40 18 46 24 36 35 -9 12 -4 16 32 20 94 12 371 36 375 33 2 -3 -37
-15 -87 -28 -50 -13 -86 -25 -81 -27 5 -2 79 8 163 22 353 58 412 67 525 76
65 5 127 9 138 9 l20 0 -20 -8 c-11 -5 -49 -11 -85 -15 -105 -11 -697 -110
-678 -114 9 -2 110 6 224 17 114 12 221 21 238 20 l31 -1 -27 -8 c-14 -4 -212
-30 -440 -56 l-413 -49 89 -9 c107 -11 522 5 551 21 23 13 550 81 696 90 166
10 313 -21 429 -93 33 -20 65 -34 73 -31 16 6 94 236 137 400 72 283 95 496
87 811 -3 122 -13 276 -21 344 -29 219 -86 502 -106 525 -4 5 -17 -7 -29 -26
-32 -52 -106 -116 -164 -142 -92 -42 -115 -39 -31 4 84 42 156 108 189 172 16
30 12 28 -39 -23 -69 -69 -135 -108 -239 -142 -138 -45 -251 -55 -609 -55
-180 1 -355 -2 -390 -6 -58 -6 -595 39 -607 50 -8 8 19 83 59 166 38 80 43
113 13 102 -19 -8 -148 -202 -157 -237 -3 -14 -11 -26 -17 -26 -12 0 -5 28 22
86 23 48 24 64 5 64 -8 0 -16 8 -18 18 -3 12 -14 -1 -37 -41 -34 -59 -62 -83
-86 -73 -16 6 -14 13 54 185 22 57 41 105 41 107 0 2 -9 4 -20 4 -16 0 7 33
101 148 67 81 129 154 137 162 14 15 -26 -63 -76 -145 -45 -74 8 -10 107 129
192 271 292 402 361 476 69 74 68 73 -38 -70 -60 -80 -173 -237 -252 -350 -79
-113 -155 -221 -169 -240 -48 -67 7 -3 156 180 83 102 168 203 188 225 l37 40
-28 -40 c-15 -22 -131 -172 -258 -333 -277 -352 -274 -348 -212 -297 77 63
372 373 393 413 20 40 271 374 390 521 131 160 266 265 383 297 30 8 79 25
108 36 58 23 133 20 198 -7 19 -8 34 -12 34 -9 0 11 -85 173 -156 296 -146
253 -272 423 -467 629 -73 76 -99 98 -113 92 -13 -5 -16 -3 -11 10 17 45 -352
326 -663 504 -173 100 -254 138 -246 116 24 -60 38 -156 34 -228 -3 -64 -11
-95 -36 -148 -33 -71 -52 -93 -25 -29 29 67 43 136 42 202 -2 107 -14 127 -22
35 -7 -94 -32 -170 -88 -274 -62 -115 -138 -209 -314 -385 -89 -89 -216 -220
-283 -293 -78 -83 -191 -189 -313 -290 -196 -162 -252 -203 -281 -203 -9 0
-18 -4 -20 -9 -1 -4 -14 -12 -27 -16 -21 -7 -23 -5 -16 23 4 18 1 40 -6 53
-11 21 -12 20 -30 -25 -10 -26 -16 -53 -13 -60 4 -10 -44 -42 -51 -34 -7 9
-105 231 -118 268 -14 39 -39 269 -52 485 -2 39 -12 158 -22 265 -21 225 -22
549 -3 685 30 214 93 358 207 474 41 41 72 75 71 77 -2 1 -70 21 -152 43 -246
68 -495 110 -740 126 -77 6 -100 4 -107 -6 -6 -10 -9 -11 -9 -1 0 6 -4 12 -9
12 -6 0 -8 -17 -5 -37 l4 -38 -13 35 -14 35 -114 1 c-63 1 -181 -2 -262 -7z
m2674 -1308 c-27 -50 -137 -184 -206 -251 l-78 -75 83 95 c45 52 110 130 143
173 60 77 77 94 58 58z m299 -881 c0 -11 -40 -34 -47 -26 -3 3 -3 12 0 21 7
16 47 21 47 5z m-180 -39 c0 -14 -23 -20 -117 -25 -98 -7 -99 -3 -3 18 78 17
120 19 120 7z m131 -88 c-16 -43 -48 -144 -72 -225 -24 -81 -45 -146 -47 -144
-9 10 68 343 97 419 6 17 18 27 30 27 19 0 18 -3 -8 -77z m-15 -253 c-15 -62
-96 -293 -102 -287 -1 1 23 82 54 179 31 97 58 176 59 174 2 -2 -3 -31 -11
-66z m-2221 -80 c-3 -5 -30 -22 -60 -36 -68 -33 -109 -77 -128 -134 -18 -52
-13 -92 14 -116 23 -20 24 -34 5 -34 -27 0 -56 50 -56 97 0 72 38 124 136 183
21 13 45 30 52 37 16 15 46 18 37 3z m-40 -70 c-3 -5 -11 -10 -16 -10 -6 0 -7
5 -4 10 3 6 11 10 16 10 6 0 7 -4 4 -10z m2051 -183 c-41 -160 -119 -395 -152
-459 -16 -32 -19 -62 -4 -38 5 8 10 11 10 6 0 -6 7 -1 15 10 10 12 8 2 -5 -30
-11 -27 -19 -50 -17 -52 2 -2 22 29 44 69 38 68 99 215 137 335 15 46 105 196
113 188 5 -5 -64 -248 -97 -341 -18 -49 -53 -138 -78 -197 l-45 -108 -88 0
c-48 0 -91 4 -94 10 -3 5 21 58 54 118 90 162 163 352 196 512 19 92 47 179
52 163 2 -6 -16 -90 -41 -186z m-2116 84 c-20 -38 -12 -61 25 -77 43 -17 50
-54 10 -50 -52 6 -104 60 -90 94 6 14 9 13 17 -8 l11 -25 7 31 c7 32 18 54 26
54 3 0 0 -9 -6 -19z m639 8 l46 -1 -35 -9 c-76 -19 -258 -9 -244 13 5 7 38 9
97 4 50 -3 111 -6 136 -7z m-246 -83 c37 -6 95 -9 128 -6 123 12 86 -15 -59
-42 -69 -13 -191 0 -240 26 l-27 14 35 16 c20 8 48 13 65 10 17 -3 61 -11 98
-18z m1427 -531 c0 -2 -5 -16 -12 -30 -12 -26 -49 -34 -77 -16 -10 7 -2 12 30
19 l44 10 -67 1 c-37 1 -70 6 -73 11 -4 6 23 10 74 10 45 0 81 -2 81 -5z
m-205 -15 c4 -6 -6 -10 -22 -10 -22 0 -25 2 -13 10 19 12 27 12 35 0z m79 -39
c7 -10 -23 -20 -41 -14 -7 3 -13 9 -13 14 0 12 47 12 54 0z m-330 -23 c-4 -7
-12 -19 -17 -26 -14 -17 -20 -79 -12 -119 9 -48 114 -178 179 -222 74 -50 162
-95 146 -76 -13 17 -13 18 1 13 10 -4 35 -12 58 -19 29 -9 41 -18 41 -31 0
-15 -3 -17 -19 -8 -26 14 -38 13 -23 -2 23 -23 12 -26 -25 -7 -21 10 -78 38
-128 61 -69 33 -105 58 -155 108 -142 141 -169 263 -71 323 32 20 34 20 25 5z
m221 -18 c-3 -5 -12 -7 -20 -3 -21 7 -19 13 6 13 11 0 18 -4 14 -10z m185
-390 c8 -5 11 -10 5 -10 -5 0 -17 5 -25 10 -8 5 -10 10 -5 10 6 0 17 -5 25
-10z m2171 -31 c-52 -21 -212 -39 -331 -37 l-125 1 105 9 c58 5 159 15 225 22
150 17 155 17 126 5z m-663 -687 c56 -37 80 -58 73 -65 -7 -7 -41 13 -106 62
-138 106 -124 107 33 3z m222 -142 c13 -9 13 -11 1 -19 -18 -11 -55 5 -46 20
8 12 26 11 45 -1z m-57 -34 c-2 -8 -403 -220 -403 -212 0 7 213 143 290 185
69 38 118 49 113 27z m-203 -177 c-26 -21 -301 -159 -316 -159 -9 0 326 179
336 179 3 0 -6 -9 -20 -20z m-250 -4 c0 -8 -268 -164 -377 -218 -59 -30 -145
-69 -191 -88 -60 -24 -78 -35 -65 -40 10 -3 25 -4 33 -2 8 2 -1 -5 -20 -16
-19 -11 -30 -20 -24 -21 38 -1 301 98 334 126 27 23 92 46 180 64 47 10 86 16
88 15 13 -11 -349 -195 -511 -259 l-118 -47 -49 41 c-39 32 -80 87 -80 106 0
1 30 9 68 18 165 37 434 149 547 226 47 33 167 100 178 100 4 0 7 -2 7 -5z
m-1070 -124 c0 -5 -9 -7 -20 -4 -11 3 -20 7 -20 9 0 2 9 4 20 4 11 0 20 -4 20
-9z m60 -16 c16 -19 0 -19 -26 0 -16 12 -16 14 -3 15 9 0 22 -7 29 -15z m189
-50 c57 -61 72 -85 54 -85 -8 0 -113 114 -127 138 -20 33 18 5 73 -53z m-74
-3 c13 -36 -25 -19 -46 20 -9 16 -7 17 15 7 14 -7 28 -18 31 -27z m-365 -142
c-1 -89 28 -269 41 -248 5 8 12 3 20 -16 12 -25 11 -30 -6 -42 -10 -8 -22 -14
-27 -14 -11 0 -59 166 -68 237 -8 60 2 183 17 228 12 34 25 -49 23 -145z m470
58 c0 -15 -24 -8 -47 14 -38 35 -28 53 12 21 19 -15 35 -31 35 -35z m-406
-183 c9 -27 11 -44 6 -39 -6 6 -18 33 -26 60 -19 62 -2 45 20 -21z m-904
-1000 c0 -20 -33 -69 -76 -112 -56 -56 -139 -184 -125 -193 9 -5 -3 -45 -16
-53 -4 -2 -18 -1 -30 4 -21 7 -20 11 35 116 43 82 73 124 124 176 58 58 88 79
88 62z m220 -86 c0 -11 -4 -17 -10 -14 -5 3 -10 15 -10 26 0 11 5 17 10 14 6
-3 10 -15 10 -26z m30 -44 c0 -14 -4 -25 -10 -25 -5 0 -10 11 -10 25 0 14 5
25 10 25 6 0 10 -11 10 -25z m74 -7 c3 -13 1 -27 -4 -32 -7 -7 -10 -4 -10 6 0
9 -3 23 -6 32 -3 9 -2 16 4 16 5 0 12 -10 16 -22z m-36 -121 c-13 -22 -13 -21
-16 6 -2 16 0 36 3 45 6 14 8 13 16 -6 6 -16 5 -31 -3 -45z m62 6 c0 -21 3
-75 7 -120 l6 -83 -52 22 c-44 19 -51 26 -51 49 0 30 15 47 23 27 3 -7 6 4 6
24 1 50 19 57 26 11 11 -65 13 -61 14 25 1 47 5 82 11 82 6 0 10 -17 10 -37z
m5 -264 c166 -94 333 -162 500 -205 135 -34 195 -54 195 -65 0 -12 13 -14
-151 31 -164 45 -336 103 -456 153 -75 32 -102 32 -63 0 18 -15 10 -16 -24 -3
-14 5 -26 7 -26 5 0 -7 169 -90 225 -110 28 -10 54 -22 60 -27 5 -4 18 -8 30
-8 29 0 109 -40 190 -95 70 -48 70 -48 30 -41 -68 13 -358 112 -490 168 l-125
53 0 98 c0 53 3 97 8 97 4 0 48 -23 97 -51z m2041 -210 c46 -34 82 -64 79 -67
-11 -12 -184 116 -272 201 -51 49 -93 94 -93 99 0 5 45 -32 100 -81 55 -50
139 -118 186 -152z m-852 -48 c9 -47 14 -86 12 -89 -12 -11 -25 13 -30 51 -19
156 -10 177 18 38z m-3114 -182 c56 -196 121 -340 239 -534 34 -54 61 -108 61
-119 0 -45 -209 327 -286 508 -26 63 -52 112 -57 109 -5 -3 -7 -14 -4 -24 7
-27 0 -24 -18 9 l-16 27 7 -35 c8 -43 62 -187 97 -255 13 -27 34 -68 45 -90
11 -22 25 -67 31 -100 6 -33 15 -76 21 -95 l10 -35 -19 24 c-56 73 -240 450
-281 575 l-12 38 63 64 c35 35 68 63 73 61 6 -2 26 -59 46 -128z m2645 52
c199 -70 227 -84 107 -56 -58 14 -330 119 -342 132 -7 8 12 2 235 -76z m304
-17 c136 -42 147 -47 154 -75 4 -16 2 -20 -11 -15 -302 102 -484 165 -488 169
-11 10 233 -45 345 -79z m205 -80 c13 -33 7 -45 -14 -34 -23 12 -27 50 -6 50
8 0 17 -7 20 -16z m-2919 -714 c52 -104 93 -190 91 -190 -7 0 -78 120 -104
175 -42 88 -91 205 -87 205 3 0 48 -85 100 -190z m99 -47 c80 -124 166 -276
166 -295 0 -8 -5 -19 -12 -26 -8 -8 -25 18 -68 106 -32 64 -80 159 -109 211
-28 52 -51 96 -51 98 0 14 19 -10 74 -94z m331 -147 c-53 -81 -75 -103 -75
-73 0 14 121 169 127 163 3 -2 -21 -43 -52 -90z m-142 -189 c7 -19 -18 -63
-28 -48 -8 15 2 61 14 61 5 0 11 -6 14 -13z m797 -372 c6 -55 14 -111 16 -125
4 -20 3 -22 -5 -9 -23 35 -41 193 -40 343 l2 151 8 -130 c4 -71 13 -175 19
-230z m-757 -502 c-7 -2 -19 -2 -25 0 -7 3 -2 5 12 5 14 0 19 -2 13 -5z m85 0
c-10 -2 -26 -2 -35 0 -10 3 -2 5 17 5 19 0 27 -2 18 -5z"/>
<path d="M7921 9678 c18 -33 38 -127 39 -177 0 -24 -7 -71 -16 -105 -21 -82
-125 -280 -177 -337 -23 -25 -6 -9 37 35 138 141 197 255 199 381 0 86 -25
184 -54 208 -29 23 -42 21 -28 -5z"/>
<path d="M5589 9098 c-13 -18 -29 -40 -36 -48 -6 -9 -8 -22 -4 -29 6 -9 19 0
45 34 34 46 45 75 28 75 -5 0 -19 -14 -33 -32z"/>
<path d="M6690 8125 c4 -25 10 -48 13 -52 9 -8 9 60 1 81 -12 32 -21 15 -14
-29z"/>
<path d="M6067 8013 c-4 -3 -7 -13 -7 -21 0 -12 3 -12 15 -2 8 7 15 16 15 21
0 11 -14 12 -23 2z"/>
<path d="M4734 7995 c11 -8 25 -15 30 -15 6 0 2 7 -8 15 -11 8 -25 15 -30 15
-6 0 -2 -7 8 -15z"/>
<path d="M4785 7912 c6 -5 45 -33 88 -62 42 -29 96 -69 120 -90 60 -53 131
-97 119 -73 -19 34 -137 139 -193 171 -56 32 -153 71 -134 54z"/>
<path d="M4710 7896 c0 -9 81 -68 86 -63 3 3 -15 19 -40 37 -25 17 -46 29 -46
26z"/>
<path d="M4620 7458 c-19 -5 -41 -14 -47 -20 -18 -14 -16 -48 3 -69 13 -15 14
-29 6 -101 -6 -46 -14 -92 -17 -103 -8 -25 35 22 72 79 28 44 93 212 85 221
-8 8 -63 4 -102 -7z"/>
<path d="M10181 6863 c0 -10 4 -27 9 -38 7 -17 9 -15 9 12 1 17 -3 35 -9 38
-5 3 -10 -2 -9 -12z"/>
<path d="M10135 6774 c-25 -47 -102 -117 -161 -147 -46 -23 -216 -79 -274 -91
-14 -2 11 -3 55 0 155 9 249 39 328 105 47 39 87 100 87 133 0 38 -14 38 -35
0z"/>
<path d="M10227 6723 c-4 -6 4 -58 18 -116 81 -342 109 -587 109 -927 0 -223
-3 -287 -22 -405 -28 -179 -66 -335 -136 -555 -31 -97 -52 -178 -47 -183 20
-20 131 330 180 570 83 412 76 832 -25 1328 -41 201 -68 303 -77 288z"/>
<path d="M5508 6670 c-360 -43 -692 -280 -858 -615 -47 -96 -97 -232 -88 -240
3 -3 12 20 22 51 51 163 147 316 284 454 223 224 482 334 787 333 130 -1 232
-18 348 -60 68 -24 201 -92 195 -99 -2 -2 -44 13 -93 33 -178 70 -261 86 -445
87 -141 0 -178 -3 -254 -23 -379 -99 -676 -374 -802 -745 -21 -59 -64 -268
-64 -309 0 -7 -5 -6 -11 3 -8 11 -9 -16 -4 -94 6 -115 24 -222 49 -296 14 -41
15 -42 11 -10 -4 31 -3 29 14 -15 54 -148 131 -265 225 -344 39 -34 106 -92
149 -129 99 -87 212 -155 328 -199 124 -47 140 -38 30 16 -50 24 -89 46 -87
49 3 2 38 -9 78 -26 142 -59 225 -64 463 -27 87 13 161 23 163 20 10 -9 -192
-52 -290 -62 -58 -5 -67 -8 -47 -15 56 -21 308 15 447 64 255 89 434 221 534
393 62 107 154 326 179 428 42 172 35 393 -18 561 -57 182 -132 298 -304 468
-144 142 -216 195 -339 249 -204 90 -400 122 -602 99z m-123 -154 c-71 -24
-152 -53 -180 -65 -77 -34 -205 -124 -260 -183 -37 -40 -40 -44 -10 -16 43 39
162 118 178 118 6 0 -10 -14 -34 -31 -111 -80 -170 -142 -259 -275 -49 -73
-101 -156 -115 -183 -64 -127 -103 -354 -90 -525 4 -54 11 -94 16 -90 5 3 11
-1 13 -8 25 -83 53 -162 73 -203 72 -143 204 -298 360 -422 46 -36 81 -68 79
-70 -2 -2 -28 8 -57 22 -32 17 -95 69 -160 132 -111 108 -170 181 -227 280
-31 55 -36 40 -6 -19 20 -39 34 -78 29 -78 -10 0 -73 138 -98 212 -43 127 -59
224 -60 353 -1 309 118 592 337 803 139 134 285 218 462 266 144 40 149 29 9
-18z m31 -245 c21 -12 30 -19 19 -15 -11 4 -74 10 -140 12 -118 5 -119 5 -75
18 61 18 148 11 196 -15z m-81 -21 c14 -6 4 -9 -38 -9 -60 -1 -118 -23 -169
-66 -27 -23 -164 -179 -185 -211 -11 -17 -11 -16 -3 6 5 14 14 43 20 66 11 47
73 122 126 155 47 29 161 68 199 68 17 0 39 -4 50 -9z m128 -24 c34 -12 36
-12 25 2 -11 13 -8 12 20 -2 52 -27 114 -87 107 -104 -3 -8 1 -24 8 -36 46
-71 60 -206 31 -293 -33 -96 -116 -174 -199 -189 -66 -11 -76 -23 -20 -23 175
-1 306 211 250 405 -9 32 -26 74 -37 93 -14 25 -15 31 -4 22 9 -7 28 -38 43
-70 25 -50 28 -67 28 -156 0 -106 -12 -143 -71 -221 -50 -65 -219 -123 -279
-96 -14 7 -41 12 -59 12 -82 0 -176 56 -211 126 -11 22 -30 49 -42 62 -11 13
-28 38 -37 57 -15 31 -15 40 -1 100 18 81 51 158 75 180 17 15 17 13 3 -46
-16 -69 -11 -91 7 -32 23 77 34 96 64 115 l31 20 -39 -6 c-37 -5 -38 -5 -21
14 22 25 98 50 150 50 23 0 50 7 61 15 24 18 67 18 117 1z m-796 -668 c-3 -7
-5 -2 -5 12 0 14 2 19 5 13 2 -7 2 -19 0 -25z m0 -90 c-3 -8 -6 -5 -6 6 -1 11
2 17 5 13 3 -3 4 -12 1 -19z m205 -550 c78 -107 197 -209 323 -281 50 -28 26
-28 -30 1 -156 79 -297 227 -389 409 -49 98 -46 106 5 13 23 -41 63 -105 91
-142z m1483 -238 c-19 -32 -266 -170 -302 -170 -7 0 28 22 79 48 51 27 122 67
158 89 74 47 73 46 65 33z"/>
<path d="M5441 6189 c56 -39 84 -71 116 -133 21 -42 25 -62 24 -127 -1 -43 -6
-90 -11 -105 -16 -42 -4 -40 19 3 20 35 21 36 15 8 -9 -39 -29 -78 -49 -95 -9
-7 -21 -23 -27 -34 -7 -14 1 -10 25 13 57 54 80 120 75 211 -7 116 -61 203
-162 261 -67 38 -80 37 -25 -2z"/>
<path d="M5240 6175 c-11 -13 -1 -15 76 -15 51 -1 106 -7 129 -15 50 -18 50
-18 34 2 -24 28 -76 43 -152 43 -54 0 -78 -4 -87 -15z"/>
<path d="M5274 6110 c-33 -13 -41 -32 -9 -20 15 6 54 10 88 11 44 0 56 3 42 9
-26 11 -94 11 -121 0z"/>
<path d="M5063 5905 c0 -27 2 -38 4 -22 2 15 2 37 0 50 -2 12 -4 0 -4 -28z"/>
<path d="M7540 6290 c0 -5 5 -10 10 -10 6 0 10 5 10 10 0 6 -4 10 -10 10 -5 0
-10 -4 -10 -10z"/>
<path d="M4551 5784 c0 -11 3 -14 6 -6 3 7 2 16 -1 19 -3 4 -6 -2 -5 -13z"/>
<path d="M4541 5734 c0 -11 3 -14 6 -6 3 7 2 16 -1 19 -3 4 -6 -2 -5 -13z"/>
<path d="M4531 5684 c0 -11 3 -14 6 -6 3 7 2 16 -1 19 -3 4 -6 -2 -5 -13z"/>
<path d="M4688 4875 c40 -81 137 -210 199 -265 59 -54 263 -191 263 -178 0 3
-21 20 -47 38 -149 105 -315 270 -395 394 -52 80 -56 82 -20 11z"/>
<path d="M4868 4693 c54 -66 100 -106 182 -158 346 -224 732 -274 1055 -139
50 20 40 27 -15 10 -78 -23 -297 -39 -455 -33 -300 10 -528 103 -730 296 -69
66 -74 69 -37 24z"/>
<path d="M8593 4663 c9 -2 23 -2 30 0 6 3 -1 5 -18 5 -16 0 -22 -2 -12 -5z"/>
<path d="M4450 4024 c-149 -65 -178 -276 -85 -615 l34 -124 -4 195 c-3 107 -7
226 -11 265 -11 127 32 195 124 195 99 0 169 -91 179 -232 4 -65 3 -71 -10
-58 -9 8 -22 40 -30 70 l-15 55 -1 -47 c-1 -34 7 -64 30 -108 33 -66 58 -80
51 -29 l-5 31 31 -16 c35 -18 82 -21 82 -6 0 6 -3 10 -7 11 -5 0 -20 2 -35 3
-45 3 -51 18 -54 129 -3 120 -23 174 -91 240 -58 56 -118 69 -183 41z"/>
<path d="M4736 3863 c27 -53 36 -86 42 -147 4 -44 12 -81 17 -83 6 -2 16 11
24 28 12 27 11 38 -9 97 -26 81 -77 172 -95 172 -9 0 -2 -22 21 -67z"/>
<path d="M4474 3879 c-19 -22 -19 -22 3 -10 37 19 61 13 105 -26 27 -26 37
-31 30 -17 -18 33 -71 74 -96 74 -13 0 -31 -10 -42 -21z"/>
<path d="M4820 3630 c0 -5 5 -10 10 -10 6 0 10 5 10 10 0 6 -4 10 -10 10 -5 0
-10 -4 -10 -10z"/>
<path d="M5338 3613 c7 -3 16 -2 19 1 4 3 -2 6 -13 5 -11 0 -14 -3 -6 -6z"/>
<path d="M5420 3580 c16 -29 12 -59 -12 -99 l-21 -36 26 24 c41 37 48 111 11
125 -11 4 -12 2 -4 -14z"/>
<path d="M4748 3562 c-30 -6 -20 -19 17 -25 36 -6 105 8 105 22 0 7 -86 9
-122 3z"/>
<path d="M5460 3533 c0 -30 -33 -93 -56 -106 -8 -4 -14 -13 -14 -19 0 -19 50
34 71 74 21 41 24 64 9 73 -6 4 -10 -6 -10 -22z"/>
<path d="M4693 3478 c31 -7 67 -7 105 0 55 9 53 9 -48 10 -95 0 -100 -1 -57
-10z"/>
<path d="M5482 3425 c-12 -20 -45 -51 -72 -71 -67 -48 -70 -75 -4 -35 50 30
104 92 104 118 0 12 -1 23 -2 23 -2 0 -13 -16 -26 -35z"/>
<path d="M5310 3383 c-54 -17 -132 -54 -126 -60 2 -3 43 7 90 21 57 18 86 32
86 41 0 8 -1 14 -2 14 -2 -1 -23 -8 -48 -16z"/>
<path d="M5465 3320 c-10 -11 -25 -22 -34 -25 -9 -3 -26 -22 -38 -43 -12 -21
-53 -73 -93 -117 -39 -43 -76 -87 -82 -98 -9 -17 -3 -16 41 9 120 70 138 88
187 189 47 95 53 123 19 85z"/>
<path d="M5242 3290 c-30 -11 -102 -31 -160 -45 -135 -32 -182 -46 -188 -56
-14 -24 302 40 384 76 51 24 69 46 35 44 -10 0 -42 -9 -71 -19z"/>
<path d="M5355 3259 c-11 -6 -38 -36 -59 -67 l-39 -57 52 50 c29 28 57 58 62
68 11 19 11 19 -16 6z"/>
<path d="M9278 3213 c26 -23 72 -56 103 -72 52 -28 58 -30 70 -14 9 11 10 17
3 20 -6 2 -59 27 -117 56 l-106 52 47 -42z"/>
<path d="M9495 3119 c-9 -28 1 -36 14 -10 7 12 7 22 2 26 -5 3 -13 -4 -16 -16z"/>
<path d="M4602 3085 c-26 -11 -32 -19 -27 -34 3 -11 1 -22 -5 -26 -5 -3 -10 1
-10 9 0 24 -15 27 -54 11 l-36 -15 39 -79 c22 -43 49 -108 61 -144 43 -134 69
-101 39 49 -10 53 -19 104 -19 115 0 31 18 22 30 -16 12 -36 24 -44 33 -22 4
9 8 8 16 -3 18 -26 13 20 -9 85 -15 44 -17 61 -9 72 15 18 -5 17 -49 -2z"/>
<path d="M9456 3051 c-4 -7 -5 -15 -2 -18 9 -9 19 4 14 18 -4 11 -6 11 -12 0z"/>
<path d="M9335 2864 c-264 -397 -533 -665 -935 -932 -127 -85 -171 -113 -278
-179 -13 -8 -22 -17 -19 -19 15 -16 415 241 577 371 277 221 555 536 722 816
77 130 31 91 -67 -57z"/>
<path d="M9403 2828 c-298 -449 -634 -762 -1158 -1078 -66 -40 -121 -73 -122
-74 -1 -1 0 -12 4 -24 l5 -22 47 27 c406 234 755 509 991 783 30 35 -17 -8
-105 -96 -219 -220 -421 -378 -721 -567 -175 -110 -194 -121 -194 -109 0 5 20
18 44 30 58 29 262 160 351 225 361 264 613 524 851 877 88 130 119 180 111
180 -2 0 -49 -69 -104 -152z"/>
<path d="M4732 2510 c0 -14 2 -19 5 -12 2 6 2 18 0 25 -3 6 -5 1 -5 -13z"/>
<path d="M6607 1325 c8 -121 22 -175 44 -175 25 0 24 6 -10 114 -16 50 -31
100 -34 111 -3 11 -3 -11 0 -50z"/>
<path d="M6668 1133 c-10 -2 -18 -8 -18 -13 0 -4 9 -6 20 -3 11 3 20 9 20 14
0 5 -1 8 -2 8 -2 -1 -11 -3 -20 -6z"/>
<path d="M6580 1100 c-13 -8 -12 -10 3 -10 9 0 17 5 17 10 0 12 -1 12 -20 0z"/>
<path d="M6683 1072 c-19 -12 0 -32 24 -26 13 4 20 11 16 20 -6 15 -22 18 -40
6z"/>
<path d="M6610 1035 c7 -8 16 -15 21 -15 5 0 9 7 9 15 0 9 -9 15 -21 15 -18 0
-19 -2 -9 -15z"/>
<path d="M6475 1009 c-573 -164 -1018 -166 -1663 -8 -135 34 -187 34 -77 1
378 -113 799 -167 1115 -142 221 17 495 70 674 129 64 21 74 27 60 40 -5 5
-50 -3 -109 -20z"/>
</g>
</svg>
