<?xml version="1.0" standalone="no"?>
<!DOCTYPE svg PUBLIC "-//W3C//DTD SVG 20010904//EN"
 "http://www.w3.org/TR/2001/REC-SVG-20010904/DTD/svg10.dtd">
<svg version="1.0" xmlns="http://www.w3.org/2000/svg"
 width="486.000000pt" height="486.000000pt" viewBox="0 0 486.000000 486.000000"
 preserveAspectRatio="xMidYMid meet">
<metadata>
Created by potrace 1.11, written by Peter Selinger 2001-2013
</metadata>
<g transform="translate(0.000000,486.000000) scale(0.100000,-0.100000)"
fill="#000000" stroke="none">
<path d="M2190 4773 c-1095 -117 -1968 -980 -2095 -2071 -86 -737 172 -1460
706 -1977 985 -952 2568 -868 3451 185 277 330 450 714 525 1165 25 154 25
532 0 695 -80 509 -310 965 -666 1321 -377 376 -841 605 -1365 674 -107 14
-454 19 -556 8z m288 -345 c6 -24 63 -240 126 -482 l115 -438 -81 -97 c-66
-78 -81 -103 -83 -134 -2 -43 -9 -41 110 -22 50 8 98 15 108 15 10 0 37 -28
65 -67 26 -36 54 -75 63 -86 l16 -21 22 21 c18 17 22 35 28 132 3 61 11 118
17 126 12 15 859 515 874 515 5 0 18 -10 30 -23 l21 -22 -256 -437 -256 -437
-108 -7 c-81 -5 -116 -11 -140 -26 -29 -18 -31 -22 -17 -32 8 -6 54 -39 100
-72 l85 -62 -14 -83 c-25 -151 -26 -139 7 -139 21 0 44 13 82 48 28 26 69 63
91 82 l39 36 482 -126 481 -125 3 -43 c2 -23 2 -42 0 -42 -2 0 -216 -56 -477
-124 l-475 -124 -90 74 c-78 64 -92 72 -105 60 -9 -7 -22 -11 -30 -8 -10 3
-12 -2 -8 -19 16 -68 29 -192 20 -198 -56 -36 -173 -126 -173 -132 0 -4 9 -11
20 -14 11 -3 20 -14 20 -24 0 -15 11 -19 61 -25 34 -3 83 -6 109 -6 25 0 53
-6 62 -12 15 -13 488 -814 488 -828 0 -3 -15 -20 -32 -37 l-33 -31 -412 241
-413 242 0 51 c0 28 -3 85 -6 127 -6 66 -10 77 -25 77 -11 0 -19 5 -19 10 0
25 -23 4 -79 -74 l-60 -83 -88 13 c-48 8 -101 16 -117 19 -25 4 -28 3 -23 -17
3 -12 2 -29 -3 -38 -7 -13 7 -35 60 -97 38 -45 73 -84 78 -87 5 -3 -46 -216
-113 -473 l-122 -468 -49 -3 -50 -3 -117 453 c-65 249 -118 457 -117 461 0 4
36 51 79 102 75 90 79 97 74 132 -3 21 -6 39 -7 39 -1 1 -50 -6 -111 -16 -60
-10 -110 -17 -111 -17 -1 1 -27 38 -59 82 -32 44 -59 81 -60 82 -1 2 -13 -3
-28 -10 -28 -13 -27 -8 -45 -187 l-7 -75 -424 -248 -424 -249 -30 30 -30 31
145 248 c80 136 192 327 249 424 l103 176 117 6 c110 6 120 9 144 33 14 14 25
27 23 29 -2 1 -44 32 -95 69 -83 60 -92 70 -88 94 3 15 9 54 15 86 16 94 14
103 -17 104 -29 0 -83 -38 -163 -115 l-46 -43 -489 127 -490 128 -3 37 c-3 34
-1 37 30 46 18 5 236 62 485 127 l451 118 89 -75 c81 -69 92 -75 131 -74 23 0
42 3 42 6 0 3 -7 43 -15 90 -24 135 -27 127 72 199 72 52 84 65 70 73 -9 5
-17 15 -17 23 0 9 -22 15 -77 20 -43 4 -100 10 -126 13 l-48 7 -258 440 c-216
368 -256 443 -247 458 6 9 16 16 22 15 6 -2 203 -115 437 -253 l427 -250 0
-51 c0 -28 3 -85 6 -127 7 -76 7 -77 34 -77 17 0 33 -8 42 -21 13 -20 16 -17
81 70 36 50 72 91 79 90 7 0 49 -6 92 -13 l80 -13 22 26 c13 14 23 28 24 31 0
3 -36 47 -80 98 l-81 92 126 483 c69 265 128 490 131 500 3 10 15 17 28 17 19
0 26 -8 34 -42z m-523 -49 c39 -47 84 -141 108 -228 18 -68 21 -103 21 -321
l1 -245 -34 -87 -33 -87 -57 25 c-83 37 -122 67 -253 193 -192 184 -292 337
-318 481 -14 77 -25 67 155 155 103 51 343 143 377 145 3 0 18 -14 33 -31z
m1290 -72 c61 -26 134 -61 163 -77 46 -27 52 -34 52 -63 0 -155 -163 -394
-414 -606 -68 -58 -158 -111 -186 -111 -4 0 -17 24 -29 53 -30 76 -45 298 -31
461 16 191 60 325 135 414 l25 30 88 -27 c48 -15 137 -49 197 -74z m-2428
-889 c177 -66 500 -365 567 -525 14 -34 26 -66 26 -70 0 -5 -35 -22 -77 -38
l-78 -30 -220 0 c-195 0 -230 3 -309 23 -108 27 -202 72 -245 116 l-32 33 45
137 c25 76 73 194 107 263 l62 125 49 -6 c28 -4 74 -16 105 -28z m3466 -105
c72 -150 144 -351 134 -377 -10 -26 -96 -75 -178 -101 -119 -37 -232 -48 -439
-42 -159 4 -193 8 -245 27 -33 13 -61 24 -63 25 -1 1 7 27 19 56 11 30 23 62
24 72 10 46 250 286 363 360 81 55 147 86 217 103 101 25 94 30 168 -123z
m-253 -1263 c117 -13 223 -41 298 -80 70 -36 92 -53 92 -70 0 -60 -172 -465
-228 -537 l-17 -22 -67 23 c-136 48 -308 179 -455 346 -68 78 -90 112 -118
180 -19 46 -33 85 -32 86 1 1 27 12 57 25 30 12 62 28 70 35 25 21 254 29 400
14z m-2819 -40 c77 -7 177 -35 196 -54 8 -8 -46 -118 -80 -164 -56 -75 -214
-230 -294 -291 -87 -65 -206 -126 -278 -141 -51 -11 -58 -10 -71 7 -32 42
-146 286 -180 386 -43 125 -43 123 54 175 145 77 389 108 653 82z m838 -712
c32 -76 44 -207 38 -408 -6 -195 -24 -287 -78 -398 -31 -63 -32 -64 -65 -57
-78 14 -258 81 -387 143 l-138 66 6 35 c28 148 162 338 370 524 83 74 195 147
226 147 4 0 16 -24 28 -52z m902 33 c91 -41 311 -244 417 -386 53 -71 122
-209 125 -251 2 -28 -3 -32 -148 -104 -129 -64 -333 -142 -400 -152 -16 -2
-27 10 -51 60 -65 133 -94 350 -76 578 6 75 15 140 20 143 5 3 20 34 33 69 13
34 27 62 30 62 4 0 26 -9 50 -19z"/>
<path d="M2335 3109 c-287 -42 -528 -265 -591 -546 -25 -113 -16 -282 21 -392
70 -206 241 -376 450 -447 115 -39 277 -45 394 -15 419 106 649 537 502 941
-91 248 -309 422 -574 459 -88 12 -116 12 -202 0z"/>
</g>
</svg>
