<?xml version="1.0" encoding="utf-8"?>
<!-- Generator: Adobe Illustrator 22.0.1, SVG Export Plug-In . SVG Version: 6.00 Build 0)  -->
<svg version="1.1" id="Lager_1" xmlns="http://www.w3.org/2000/svg" xmlns:xlink="http://www.w3.org/1999/xlink" x="0px" y="0px"
	 viewBox="0 0 225 52" style="enable-background:new 0 0 225 52;" xml:space="preserve">
<style type="text/css">
	.st0{fill:#E20D18;}
	.st1{fill:#020203;}
</style>
<g>
	<polygon class="st0" points="39.5,18.2 39.5,2.5 23.7,2.5 23.7,18.2 8,18.2 8,33.9 23.7,33.9 23.7,33.9 23.7,49.6 39.5,49.6 
		39.5,33.9 39.5,33.9 55.2,33.9 55.2,18.2 	"/>
	<g>
		<polygon class="st1" points="215.4,22.2 213,22.2 213,24.6 212.2,24.6 212.2,26.5 213,26.5 213,32.5 215.4,32.5 215.4,26.5 
			216.8,26.5 216.8,24.6 215.4,24.6 		"/>
		<path class="st1" d="M207.7,30.8c-1,0-1.8-0.6-2-1.8h5.8c0-3-1.5-4.7-4-4.7c-2.4,0-4,1.7-4,4.1c0,2.5,1.7,4.2,4.2,4.2
			c1.6,0,2.8-0.7,3.6-2.1l-1.7-1C209,30.5,208.5,30.8,207.7,30.8z M207.4,26.2c0.8,0,1.4,0.4,1.6,1.3h-3.3
			C206,26.6,206.6,26.2,207.4,26.2z"/>
		<path class="st1" d="M202.4,26.2c-0.5-1.2-1.4-1.8-2.7-1.8c-1.7,0-2.9,1.1-2.9,2.6c0,1.2,0.6,1.9,2.2,2.4c1.1,0.4,1.3,0.5,1.3,0.9
			c0,0.4-0.3,0.6-0.6,0.6c-0.5,0-0.8-0.3-1.1-0.9l-1.9,0.6c0.6,1.5,1.4,2.1,3,2.1c1.8,0,3-1.1,3-2.6c0-0.7-0.3-1.3-0.8-1.7
			c-0.4-0.3-0.6-0.4-1.6-0.7c-0.8-0.3-1.1-0.5-1.1-0.9c0-0.4,0.3-0.7,0.7-0.7s0.6,0.2,0.8,0.7L202.4,26.2z"/>
		<path class="st1" d="M195.9,24.4c-1.1,0.1-2,0.6-2.6,1.4v-1.2h-2.4v8h2.4v-3.5c0-0.6,0.1-1.1,0.3-1.5c0.3-0.5,0.8-0.8,1.4-0.8
			c0.3,0,0.5,0.1,0.9,0.3L195.9,24.4L195.9,24.4z"/>
		<path class="st1" d="M185.1,24.4c-2.5,0-4.4,1.8-4.4,4.2c0,2.4,1.9,4.1,4.4,4.1c2.6,0,4.4-1.8,4.4-4.1
			C189.5,26.2,187.7,24.4,185.1,24.4z M185.1,30.7c-1.1,0-2-0.9-2-2.1c0-1.2,0.8-2.1,2-2.1c1.1,0,1.9,0.9,1.9,2.1
			C187,29.7,186.2,30.7,185.1,30.7z"/>
		<polygon class="st1" points="180.7,20.5 177.7,20.5 173.6,25.7 173.6,20.5 171.1,20.5 171.1,32.5 173.6,32.5 173.6,27.1 178,32.5 
			181.1,32.5 176,26.3 		"/>
		<path class="st1" d="M164.1,24.6v1c-0.8-0.8-1.6-1.2-2.7-1.2c-2.2,0-3.9,1.8-3.9,4.2c0,2.4,1.7,4.1,3.9,4.1c1.1,0,1.8-0.3,2.6-1.1
			v0.9h2.4v-8H164.1z M162,30.7c-1.1,0-2-0.9-2-2.1c0-1.2,0.9-2.1,2.1-2.1c1.1,0,2,0.9,2,2.1C164.1,29.7,163.2,30.7,162,30.7z"/>
		<path class="st1" d="M153.8,19.5v5.9c-0.8-0.7-1.6-1-2.5-1c-2.2,0-3.9,1.8-3.9,4.2c0,2.4,1.7,4.2,4,4.2c1,0,1.6-0.3,2.5-0.9v0.7
			h2.4v-13H153.8z M151.9,30.7c-1.2,0-2.1-0.9-2.1-2.1c0-1.2,0.9-2.1,2.1-2.1s2.1,0.9,2.1,2.1C154,29.7,153.1,30.7,151.9,30.7z"/>
		<path class="st1" d="M143.9,20.6c-0.7,0-1.3,0.6-1.3,1.3c0,0.7,0.6,1.3,1.3,1.3s1.3-0.6,1.3-1.3C145.1,21.2,144.6,20.6,143.9,20.6
			"/>
		<path class="st1" d="M140.1,20.6c-0.7,0-1.3,0.6-1.3,1.3c0,0.7,0.6,1.3,1.3,1.3c0.7,0,1.3-0.6,1.3-1.3
			C141.4,21.2,140.8,20.6,140.1,20.6"/>
		<path class="st1" d="M142,24.4c-2.5,0-4.4,1.8-4.4,4.2c0,2.4,1.9,4.1,4.4,4.1c2.6,0,4.4-1.8,4.4-4.1
			C146.3,26.2,144.5,24.4,142,24.4z M142,30.7c-1.1,0-2-0.9-2-2.1c0-1.2,0.8-2.1,2-2.1c1.1,0,1.9,0.9,1.9,2.1
			C143.9,29.7,143,30.7,142,30.7z"/>
		<path class="st1" d="M133.7,27.5c1.9-0.4,2.8-1.5,2.8-3.5c0-1.2-0.4-2.1-1.1-2.7c-0.8-0.6-1.8-0.8-4.4-0.8h-2.4v12.1h2.5v-4.9
			l3.4,4.9h3.1L133.7,27.5z M133.2,25.6c-0.3,0.2-0.8,0.3-1.8,0.3H131v-3.4h0.6c1.7,0,2.3,0.4,2.3,1.7
			C133.9,24.9,133.6,25.4,133.2,25.6z"/>
		<path class="st1" d="M121.2,24.6v1c-0.8-0.8-1.6-1.2-2.7-1.2c-2.2,0-3.9,1.8-3.9,4.2c0,2.4,1.7,4.1,3.9,4.1c1.1,0,1.8-0.3,2.6-1.1
			v0.9h2.4v-8H121.2z M119.1,30.7c-1.1,0-2-0.9-2-2.1c0-1.2,0.9-2.1,2.1-2.1c1.1,0,2,0.9,2,2.1C121.2,29.7,120.3,30.7,119.1,30.7z"
			/>
		<polygon class="st1" points="114.4,24.6 111.5,24.6 108.8,27.6 108.8,19.5 106.4,19.5 106.4,32.5 108.8,32.5 108.8,29.1 
			111.7,32.5 114.7,32.5 111,28.4 		"/>
		<path class="st1" d="M104.9,26.2c-0.5-1.2-1.4-1.8-2.7-1.8c-1.7,0-2.9,1.1-2.9,2.6c0,1.2,0.6,1.9,2.2,2.4c1.1,0.4,1.3,0.5,1.3,0.9
			c0,0.4-0.3,0.6-0.6,0.6c-0.5,0-0.8-0.3-1.1-0.9l-1.9,0.6c0.6,1.5,1.4,2.1,3,2.1c1.8,0,3-1.1,3-2.6c0-0.7-0.3-1.3-0.8-1.7
			c-0.4-0.3-0.6-0.4-1.6-0.7c-0.8-0.3-1.1-0.5-1.1-0.9c0-0.4,0.3-0.7,0.7-0.7s0.6,0.2,0.8,0.7L104.9,26.2z"/>
		<path class="st1" d="M92.4,24.6H90v8h2.4v-4.3c0-0.6,0.1-0.9,0.4-1.2c0.3-0.3,0.8-0.6,1.3-0.6c0.9,0,1.3,0.5,1.3,1.8v4.3h2.4V28
			c0-1-0.1-1.7-0.3-2.2c-0.4-0.9-1.3-1.4-2.5-1.4c-1,0-1.8,0.3-2.6,1.2L92.4,24.6L92.4,24.6z"/>
		<path class="st1" d="M84.9,30.8c-1,0-1.8-0.6-2-1.8h5.8c0-3-1.5-4.7-4-4.7c-2.4,0-4,1.7-4,4.1c0,2.5,1.7,4.2,4.2,4.2
			c1.6,0,2.8-0.7,3.6-2.1l-1.7-1C86.2,30.5,85.7,30.8,84.9,30.8z M84.6,26.2c0.8,0,1.4,0.4,1.6,1.3h-3.3
			C83.2,26.6,83.7,26.2,84.6,26.2z"/>
		<polygon class="st1" points="80.6,24.6 78.1,24.6 76,29.2 73.9,24.6 71.3,24.6 74.9,32.5 76.9,32.5 		"/>
		<path class="st1" d="M71,21.6c-1-0.9-2-1.3-3.2-1.3c-2.2,0-3.8,1.6-3.8,3.7c0,1.4,0.7,2.5,2.1,3.1c1.3,0.6,1.3,0.6,1.7,0.8
			c0.6,0.3,0.9,0.7,0.9,1.3c0,0.8-0.6,1.3-1.3,1.3c-0.7,0-1.3-0.3-2.1-1.1l-1.5,1.9c1,1,2.1,1.4,3.5,1.4c2.5,0,4.1-1.5,4.1-3.7
			c0-1-0.4-1.9-1.1-2.5c-0.4-0.4-0.8-0.6-1.8-1c-1.5-0.6-2-1-2-1.7c0-0.7,0.6-1.3,1.3-1.3c0.7,0,1.2,0.3,1.7,1L71,21.6z"/>
	</g>
</g>
</svg>
